<?xml version="1.0" encoding="utf-8"?>
<svg version="1.1" x="0px" y="0px" viewBox="0 0 800 600" style="enable-background:new 0 0 800 600;" xmlns="http://www.w3.org/2000/svg">
  <style type="text/css">
	.st0{fill:#DAF0FD;}
	.st1{fill:#C3E7FD;}
	.st2{fill:#FFFFFF;stroke:#0F467E;stroke-width:4;stroke-linecap:round;stroke-linejoin:round;stroke-miterlimit:10;}
	.st3{fill:none;stroke:#0F467E;stroke-width:9;stroke-linecap:round;stroke-miterlimit:10;}
	.st4{fill:#0F467E;}
	.st5{fill:#FAE7CD;}
	.st6{fill:none;stroke:#0F467E;stroke-width:4;stroke-linecap:round;stroke-miterlimit:10;}
	.st7{fill:#4EB2E6;stroke:#0F467E;stroke-width:4;stroke-linecap:round;stroke-linejoin:round;stroke-miterlimit:10;}
	.st8{fill:#948876;}
	.st9{fill:none;stroke:#0F467E;stroke-width:4;stroke-linecap:round;stroke-linejoin:round;stroke-miterlimit:10;}
	.st10{fill:#DBCBB3;}
	.st11{fill:#E6E6E6;}
	.st12{fill:#FFFFFF;}
	.st13{fill:none;stroke:#0F467E;stroke-width:4;stroke-miterlimit:10;}
	.st14{fill:#FAE7CD;stroke:#0F467E;stroke-width:4;stroke-linecap:round;stroke-linejoin:round;stroke-miterlimit:10;}
	.st15{fill:#EE927E;stroke:#0F467E;stroke-width:4;stroke-linecap:round;stroke-linejoin:round;stroke-miterlimit:10;}
</style>
  <g id="Layer_2"/>
  <g id="Layer_1">
    <g>
      <path class="st1" d="M630.8,181.8H271.5c-18.3,0-33.3-15-33.3-33.3v0c0-18.3,15-33.3,33.3-33.3h359.3c18.3,0,33.3,15,33.3,33.3v0&#10;&#9;&#9;&#9;C664.1,166.8,649.1,181.8,630.8,181.8z"/>
      <path class="st1" d="M682.6,315H117.8c-18.3,0-33.3-15-33.3-33.3v0c0-18.3,15-33.3,33.3-33.3h564.8c18.3,0,33.3,15,33.3,33.3v0&#10;&#9;&#9;&#9;C715.9,300,700.9,315,682.6,315z"/>
      <path class="st1" d="M621.3,448.1H152.1c-18.3,0-33.3-15-33.3-33.3l0,0c0-18.3,15-33.3,33.3-33.3h469.2c18.3,0,33.3,15,33.3,33.3&#10;&#9;&#9;&#9;l0,0C654.6,433.1,639.6,448.1,621.3,448.1z"/>
      <path class="st1" d="M543.4,215.1c0-18.3,15-33.3,33.3-33.3h-301c18.3,0,33.3,15,33.3,33.3c0,18.3-15,33.3-33.3,33.3h301&#10;&#9;&#9;&#9;C558.4,248.4,543.4,233.4,543.4,215.1z"/>
      <path class="st1" d="M516.1,348.3c0-18.3,15-33.3,33.3-33.3h-334c18.3,0,33.3,15,33.3,33.3c0,18.3-15,33.3-33.3,33.3h334&#10;&#9;&#9;&#9;C531.1,381.5,516.1,366.6,516.1,348.3z"/>
    </g>
    <path class="st2" d="M335.1,171.9c0-15.5-6.2-29.5-16.1-39.7c0.3-2.6,0.5-5.2,0.5-7.8c0-31.5-25.6-57.1-57.1-57.1&#10;&#9;&#9;c-2.6,0-5.2,0.2-7.7,0.5c-7-10.4-18.9-17.3-32.4-17.3c-15.5,0-28.9,9.1-35.2,22.2c-2.4-0.3-4.8-0.5-7.3-0.5&#10;&#9;&#9;c-31.5,0-57.1,25.6-57.1,57.1c0,7.2,1.3,14.1,3.8,20.4c-6.7,7-10.8,16.5-10.8,26.9c0,18,12.2,33.1,28.8,37.6&#10;&#9;&#9;c4.9,26.6,28.1,46.7,56.1,46.7c11.5,0,22.1-3.4,31.1-9.2c6.2,4.2,13.7,6.6,21.7,6.6c18.8,0,34.5-13.3,38.2-31.1&#10;&#9;&#9;C316.6,221.2,335.1,198.8,335.1,171.9z"/>
    <g>
      <path class="st3" d="M194.9,132.8c0-14.6,12.3-26.3,27.1-25.4c12.7,0.8,23,11.1,23.8,23.8c0.7,11.4-6,21.2-15.8,25.2&#10;&#9;&#9;&#9;c-5.9,2.4-9.6,8.2-9.6,14.6v21.5"/>
      <circle class="st4" cx="220.3" cy="213.9" r="7.5"/>
    </g>
    <path class="st1" d="M695.5,553.9H104.5c-7,0-12.6-5.6-12.6-12.6l0,0c0-7,5.6-12.6,12.6-12.6h590.9c7,0,12.6,5.6,12.6,12.6l0,0&#10;&#9;&#9;C708.1,548.3,702.4,553.9,695.5,553.9z"/>
    <g>
      <path class="st5" d="M496.7,524.3l-2.3-24.9c54.7-5.1,62.7-16.2,63.9-19.5c1-2.8,0.8-9.9-11.7-25.9c-10.9-14.1-28-30.9-46.2-48.7&#10;&#9;&#9;&#9;c-4.5-4.4-9.1-8.9-13.7-13.5l17.6-17.7c4.6,4.6,9.1,9,13.6,13.4c18.7,18.4,36.4,35.8,48.4,51.2c9.8,12.6,22,31.4,15.5,49.7&#10;&#9;&#9;&#9;C574.7,508.3,548.4,519.5,496.7,524.3z"/>
    </g>
    <g>
      <path class="st6" d="M496.7,524.3l-2.3-24.9c54.7-5.1,62.7-16.2,63.9-19.5c1-2.8,0.8-9.9-11.7-25.9c-10.9-14.1-28-30.9-46.2-48.7&#10;&#9;&#9;&#9;c-4.5-4.4-9.1-8.9-13.7-13.5l17.6-17.7c4.6,4.6,9.1,9,13.6,13.4c18.7,18.4,36.4,35.8,48.4,51.2c9.8,12.6,22,31.4,15.5,49.7&#10;&#9;&#9;&#9;C574.7,508.3,548.4,519.5,496.7,524.3z"/>
    </g>
    <polygon class="st7" points="524.6,437.1 552.5,413.7 524.6,385.9 &#9;"/>
    <g>
      <path class="st8" d="M309.7,268.7c0,0-20.7-73.7-4-118.4c9,21.6,28.8,31.6,68.6,14.4c28.3-12.2,80.5-30.8,91.7,12.7&#10;&#9;&#9;&#9;c49.3-20.6,24.4,91.1,24.4,91.1L309.7,268.7z"/>
      <path class="st9" d="M309.7,268.7c0,0-20.7-73.7-4-118.4c9,21.6,28.8,31.6,68.6,14.4c28.3-12.2,80.5-30.8,91.7,12.7&#10;&#9;&#9;&#9;c49.3-20.6,24.4,91.1,24.4,91.1L309.7,268.7z"/>
    </g>
    <circle class="st5" cx="490.3" cy="280.7" r="15"/>
    <circle class="st6" cx="490.3" cy="280.7" r="15"/>
    <circle class="st5" cx="309.7" cy="280.7" r="15"/>
    <circle class="st6" cx="309.7" cy="280.7" r="15"/>
    <path class="st5" d="M485.3,375.8H314.7V231c0-0.3,0-0.7,0-1c0.6-9.2,10-15.4,18.9-12.8c10.9,3.1,42.6,11.4,66.3,11.4&#10;&#9;&#9;s55.4-8.3,66.3-11.4c8.9-2.5,18.2,3.6,18.9,12.8c0,0.3,0,0.7,0,1V375.8z"/>
    <path class="st6" d="M485.3,375.8H314.7V231c0-0.3,0-0.7,0-1c0.6-9.3,10-15.4,19-12.8c10.8,3.1,41.2,11.4,66.3,11.4&#10;&#9;&#9;c25,0,55.5-8.2,66.3-11.4c8.9-2.6,18.3,3.5,19,12.8c0,0.3,0,0.7,0,1V375.8z"/>
    <path class="st6" d="M392.6,304.6c0-4.1,3.3-7.4,7.4-7.4s7.4,3.3,7.4,7.4"/>
    <path class="st10" d="M399.8,344.3c4.6-6.3,19.2-6.1,8-22.4c-8.4-12.3-16.7,6.2-24.4,1.2c-2.7-1.8-9.8-8.2-11.8-2.5&#10;&#9;&#9;c-1.9,5.2,7.6,6,5.6,15.1l-3.5,18.2h24.4L399.8,344.3z"/>
    <path class="st11" d="M524.9,528.7H275.1c-5.5,0-10-4.5-10-10V359.4c0-5.5,4.5-10,10-10h249.8c5.5,0,10,4.5,10,10v159.3&#10;&#9;&#9;C534.9,524.2,530.4,528.7,524.9,528.7z"/>
    <path class="st12" d="M524.9,349.4H275.1c-5.5,0-10,4.5-10,10v7.9c0-5.5,4.5-10,10-10h249.8c5.5,0,10,4.5,10,10v-7.9&#10;&#9;&#9;C534.9,353.9,530.4,349.4,524.9,349.4z"/>
    <path class="st13" d="M524.9,528.7H275.1c-5.5,0-10-4.5-10-10V359.4c0-5.5,4.5-10,10-10h249.8c5.5,0,10,4.5,10,10v159.3&#10;&#9;&#9;C534.9,524.2,530.4,528.7,524.9,528.7z"/>
    <circle class="st12" cx="400" cy="439" r="19.4"/>
    <line class="st6" x1="177.7" y1="528.7" x2="620.9" y2="528.7"/>
    <line class="st6" x1="160.1" y1="528.7" x2="114" y2="528.7"/>
    <line class="st6" x1="687" y1="528.7" x2="640.9" y2="528.7"/>
    <circle class="st4" cx="355.3" cy="268.7" r="7.4"/>
    <circle class="st4" cx="444.7" cy="268.7" r="7.4"/>
    <path class="st14" d="M406,339.7c4.6-6.3,19.2-6.1,8-22.4c-8.4-12.3-16.7,6.2-24.4,1.2c-2.7-1.8-9.8-8.2-11.8-2.5&#10;&#9;&#9;c-1.9,5.2,7.6,6,5.6,15.1l-3.5,18.2h24.4L406,339.7z"/>
    <circle class="st2" cx="244" cy="279.9" r="12.8"/>
    <circle class="st2" cx="275" cy="293.7" r="6.9"/>
    <path class="st15" d="M219.3,468.7h-41.2c-1.8,0-3.3,1.5-3.3,3.3v53.4c0,1.8,1.5,3.3,3.3,3.3h41.2c1.8,0,3.3-1.5,3.3-3.3V472&#10;&#9;&#9;C222.6,470.1,221.2,468.7,219.3,468.7z"/>
    <path class="st15" d="M174.8,507.2c-5.4,0-9.8-4.4-9.8-9.8c0-5.4,4.4-9.8,9.8-9.8V477c-11.2,0-20.3,9.1-20.3,20.3&#10;&#9;&#9;c0,11.2,9.1,20.3,20.3,20.3V507.2z"/>
    <g>
      <path class="st12" d="M183.2,454.9L183.2,454.9c-2.3,0-4.1-1.9-4.1-4.1v-20.6c0-2.3,1.9-4.1,4.1-4.1l0,0c2.3,0,4.1,1.9,4.1,4.1&#10;&#9;&#9;&#9;v20.6C187.3,453.1,185.5,454.9,183.2,454.9z"/>
    </g>
    <g>
      <path class="st12" d="M198.7,461.5L198.7,461.5c-2.3,0-4.1-1.9-4.1-4.1v-37.1c0-2.3,1.9-4.1,4.1-4.1l0,0c2.3,0,4.1,1.9,4.1,4.1&#10;&#9;&#9;&#9;v37.1C202.8,459.7,201,461.5,198.7,461.5z"/>
      <circle class="st12" cx="198.7" cy="407.5" r="4.1"/>
    </g>
    <g>
      <path class="st12" d="M214.2,453.2L214.2,453.2c-2.3,0-4.1-1.9-4.1-4.1v-24.4c0-2.3,1.9-4.1,4.1-4.1l0,0c2.3,0,4.1,1.9,4.1,4.1&#10;&#9;&#9;&#9;v24.4C218.3,451.4,216.5,453.2,214.2,453.2z"/>
    </g>
  </g>
</svg>